<svg width="886" height="166" viewBox="0 0 886 166" fill="none" xmlns="http://www.w3.org/2000/svg">
<path d="M838.877 142.146C838.877 129.184 849.399 118.668 862.354 118.668C875.316 118.668 885.826 129.184 885.826 142.146C885.826 155.108 875.316 165.618 862.354 165.618C849.399 165.618 838.877 155.108 838.877 142.146Z" fill="#86BC24"/>
<path d="M90.1095 79.9685C90.1095 65.0975 87.2362 54.0649 81.4889 46.8774C75.7345 39.6966 67.0179 36.1096 55.2994 36.1096H42.8336V127.048H52.371C65.3874 127.048 74.9259 123.189 80.9993 115.444C87.0656 107.713 90.1095 95.8857 90.1095 79.9685ZM134.566 78.4197C134.566 105.512 127.283 126.388 112.718 141.042C98.1525 155.702 77.6774 163.033 51.2843 163.033H0V0.688477H54.8642C80.3127 0.688477 99.9593 7.35285 113.805 20.6749C127.643 34.0038 134.566 53.243 134.566 78.4197Z" fill="#0F0B0B"/>
<path d="M276.623 163.031H317.432V0.00732422H276.623V163.031Z" fill="#0F0B0B"/>
<path d="M374.76 102.223C374.76 112.617 376.118 120.544 378.829 125.993C381.547 131.448 386.098 134.172 392.497 134.172C398.829 134.172 403.306 131.448 405.914 125.993C408.523 120.544 409.821 112.617 409.821 102.223C409.821 91.8828 408.502 84.0837 405.86 78.8187C403.21 73.5402 398.694 70.8974 392.288 70.8974C386.024 70.8974 381.547 73.5267 378.829 78.7577C376.118 83.9955 374.76 91.8148 374.76 102.223ZM451.357 102.223C451.357 122.026 446.166 137.474 435.758 148.547C425.357 159.628 410.799 165.171 392.083 165.171C374.135 165.171 359.847 159.505 349.243 148.174C338.625 136.842 333.319 121.53 333.319 102.223C333.319 82.4806 338.517 67.1407 348.924 56.2031C359.332 45.2656 373.924 39.7969 392.715 39.7969C404.325 39.7969 414.597 42.331 423.497 47.3921C432.403 52.4533 439.278 59.702 444.108 69.145C448.945 78.5743 451.357 89.607 451.357 102.223Z" fill="#0F0B0B"/>
<path d="M467.562 163.031H508.378V100.64V41.937H467.562V163.031Z" fill="#0F0B0B"/>
<path d="M467.562 27.2895H508.377V0H467.562V27.2895Z" fill="#0F0B0B"/>
<path d="M591.067 132.145C596.577 132.145 603.139 130.745 610.795 127.967V158.436C605.292 160.854 600.062 162.586 595.089 163.612C590.116 164.652 584.28 165.168 577.602 165.168C563.899 165.168 554.022 161.724 547.955 154.849C541.916 147.974 538.886 137.417 538.886 123.171V73.252H524.593V41.9474H538.886V11.0234L580.014 3.86963V41.9474H606.054V73.252H580.014V120.385C580.014 128.225 583.703 132.145 591.067 132.145Z" fill="#0F0B0B"/>
<path d="M685.53 132.145C691.039 132.145 697.603 130.745 705.259 127.967V158.436C699.763 160.854 694.524 162.586 689.551 163.612C684.572 164.652 678.757 165.168 672.065 165.168C658.362 165.168 648.485 161.724 642.432 154.849C636.379 147.974 633.35 137.417 633.35 123.171V73.252H619.049V41.9474H633.35V10.5547L674.47 3.86963V41.9474H700.523V73.252H674.47V120.385C674.47 128.225 678.159 132.145 685.53 132.145Z" fill="#0F0B0B"/>
<path d="M756.757 87.4698C757.314 80.8393 759.21 75.982 762.444 72.8773C765.691 69.7795 769.699 68.2307 774.495 68.2307C779.726 68.2307 783.884 69.9696 786.968 73.4751C790.072 76.9602 791.69 81.6274 791.819 87.4698H756.757ZM814.312 54.0731C804.611 44.5622 790.847 39.7998 773.041 39.7998C754.325 39.7998 739.923 45.2685 729.828 56.2061C719.74 67.1436 714.691 82.8368 714.691 103.285C714.691 123.088 720.147 138.36 731.03 149.08C741.92 159.8 757.212 165.167 776.906 165.167C786.363 165.167 794.503 164.522 801.323 163.238C808.103 161.968 814.665 159.671 821.031 156.356L814.76 129.066C810.134 130.955 805.732 132.409 801.574 133.367C795.569 134.759 788.98 135.459 781.805 135.459C773.939 135.459 767.729 133.536 763.177 129.691C758.626 125.839 756.2 120.527 755.922 113.761H828.87V95.1669C828.87 77.2796 824.019 63.5773 814.312 54.0731Z" fill="#0F0B0B"/>
<path d="M188.728 87.4698C189.285 80.8393 191.181 75.982 194.414 72.8773C197.655 69.7795 201.671 68.2307 206.474 68.2307C211.691 68.2307 215.848 69.9696 218.94 73.4751C222.044 76.9602 223.654 81.6274 223.797 87.4698H188.728ZM246.29 54.0731C236.582 44.5622 222.825 39.7998 205.013 39.7998C186.289 39.7998 171.894 45.2685 161.805 56.2061C151.717 67.1436 146.663 82.8368 146.663 103.285C146.663 123.088 152.112 138.36 163.009 149.08C173.892 159.8 189.183 165.167 208.878 165.167C218.335 165.167 226.473 164.522 233.294 163.238C240.073 161.968 246.637 159.671 253.009 156.356L246.732 129.066C242.105 130.955 237.703 132.409 233.552 133.367C227.533 134.759 220.95 135.459 213.776 135.459C205.916 135.459 199.701 133.536 195.149 129.691C190.59 125.839 188.172 120.527 187.894 113.761H260.842V95.1669C260.842 77.2796 255.991 63.5773 246.29 54.0731Z" fill="#0F0B0B"/>
</svg>
